<svg id="titles" xmlns="http://www.w3.org/2000/svg" xmlns:xlink="http://www.w3.org/1999/xlink" viewBox="0 0 106 46"><defs><style>.cls-1{fill:url(#Darker_Gold);}</style><linearGradient id="Darker_Gold" x1="1.57" y1="17.63" x2="63.55" y2="17.63" gradientUnits="userSpaceOnUse"><stop offset="0" stop-color="#ba8d2e"/><stop offset="0.07" stop-color="#bc8f31"/><stop offset="0.11" stop-color="#c1973b"/><stop offset="0.16" stop-color="#caa54b"/><stop offset="0.2" stop-color="#d7b862"/><stop offset="0.24" stop-color="#e7d07f"/><stop offset="0.27" stop-color="#fbeda3"/><stop offset="0.28" stop-color="#fcefa5"/><stop offset="0.28" stop-color="#f8e99e"/><stop offset="0.33" stop-color="#e2c876"/><stop offset="0.38" stop-color="#d1af57"/><stop offset="0.43" stop-color="#c49c40"/><stop offset="0.47" stop-color="#bd9133"/><stop offset="0.51" stop-color="#ba8d2e"/><stop offset="0.82" stop-color="#ba8d2e"/><stop offset="0.83" stop-color="#b6872d"/><stop offset="0.95" stop-color="#8d5521"/><stop offset="1" stop-color="#7d411c"/></linearGradient></defs><title>Portfolio</title><path class="cls-1" d="M15.21,18.82s.13.08.13.34v0c0,.64-1.32,1.7-2.09,2.76a5.64,5.64,0,0,0-1.19,2,.47.47,0,0,0,0,.21c0,.17.13.26.43.26s.93-.09,1.82-.17A44.21,44.21,0,0,0,22.09,23a4.22,4.22,0,0,0,3.1-4.29,5.84,5.84,0,0,0,0-.85c-.26-1.69-2.38-5-4.21-7S13.3,3.4,9.64,1.53A7.51,7.51,0,0,0,6.54.72,3.81,3.81,0,0,0,2.85,2.93a4,4,0,0,0-.26,1.62A13.94,13.94,0,0,0,3,7.26v.22c0,.21-.08.25-.29.25a4.16,4.16,0,0,1-.6-.08c-.38-.05-.51-.17-.51-.77A23,23,0,0,1,1.87,4c.3-2.6,2-4,4.84-4A10.69,10.69,0,0,1,8.92.25C13,1.1,20.31,9,22.9,12.06,24.68,14.19,26,16.61,26,18.9a5.08,5.08,0,0,1-.89,3C23,24.94,14.06,25,12.4,25s-1.7.17-2.42,1.06-3,4.46-3,5v.38c0,.3-.09.64-.72,1.66-.77,1.18-1,2.12-1.49,2.12a.51.51,0,0,1-.25-.09.57.57,0,0,1-.34-.55,5,5,0,0,1,.93-2.08c.85-1.49,3.78-6.2,4-6.88a.49.49,0,0,0,0-.21c0-.39-.51-.43-.51-.6s0-.08.08-.13c.26-.29,1.32-.38,1.91-.68s1-1.44,1.45-2,2.76-2.93,2.76-2.93S15.08,18.82,15.21,18.82Zm15.08.89a2.07,2.07,0,0,0-1.44.77,4.08,4.08,0,0,0-.94,1.95.39.39,0,0,0,0,.21c0,.3.13.47.34.47.72-.09.89-.3,1.7-1.19a9,9,0,0,0,1.23-1.66v-.08c0-.26-.21-.77-.21-1.15,0,0,0-.08,0-.13,0-.42,0-.59.47-.76a.64.64,0,0,1,.29,0c.26,0,.47.17.47.59v.09c0,.59.38,1.27.94,1.27a.8.8,0,0,0,.51-.17c.51-.34.59-.55.59-.85v-.42c0-.34-.13-.73-.13-1a.59.59,0,0,1,.3-.6,1,1,0,0,1,.47-.13.46.46,0,0,1,.51.43v0a.65.65,0,0,0,0,.26c0,.17,0,.21.17.51A3.77,3.77,0,0,1,36,19.84a2.55,2.55,0,0,1-.25,1.06c-.6,1-1.49,1.87-1.49,2.29,0,0,0,.09.09.13s.08,0,.17,0a4.1,4.1,0,0,0,1.61-.93c.6-.55,2.25-2.08,2.47-2.21a.15.15,0,0,1,.12,0c.17,0,.26.08.26.17s-.6.47-1.79,1.74l-.42.34c-.72.51-1.79,1.57-2.51,1.7h-.17c-.59,0-.63-.47-.68-.85a2.08,2.08,0,0,1,.85-1.4A3.82,3.82,0,0,0,35.09,20c0-.34-.09-.77-.26-.77s-.59,1.07-1.18,1.28a2.31,2.31,0,0,1-.68.13,3.72,3.72,0,0,1-1-.26.19.19,0,0,0-.09,0,2.6,2.6,0,0,0-.55.81,6.32,6.32,0,0,1-2.21,2.25,2.24,2.24,0,0,1-1,.26A1,1,0,0,1,27,22.9a.68.68,0,0,1,0-.3,4.45,4.45,0,0,1,1.65-3.36,3.73,3.73,0,0,1,1.7-.63c.17,0,.3,0,.34.12a2.3,2.3,0,0,1,.13.56c0,.17,0,.29-.13.34a.55.55,0,0,1-.3.08Zm18-10.41c.13,0,.21,0,.21.17a5.45,5.45,0,0,1-1.4,2c-.38.34-1.4,1.53-2.42,2.63,1.61.17,2.5.43,3.35.43a2.72,2.72,0,0,0,.64-.05,2.56,2.56,0,0,1,.51,0c.43,0,.55.13.55.3a.73.73,0,0,1-.12.34.6.6,0,0,1-.56.25A9.26,9.26,0,0,1,48,15.12a21.8,21.8,0,0,0-3.82-.46c-.47.51-.94,1-1.4,1.57a29.59,29.59,0,0,0-2.51,2.84A6.76,6.76,0,0,1,38.7,20.9,43.41,43.41,0,0,0,35,25.45c-1.74,2.42-2.08,3.44-2.12,4.24v.22c0,.59.34.51.64.68.12,0,.12.12.12.21a.93.93,0,0,1-.21.42c-.64-.08-1.15-.59-1.15-1.61a4.78,4.78,0,0,1,.17-1.19c.47-1.91,5.87-8.16,6.72-9.09,1.35-1.53,2.67-3.1,4-4.67-1.23-.09-2.3-.39-3.27-.51-.09,0-.17.08-.26.08h0c-.08,0-.13-.08-.13-.17a.36.36,0,0,1,.22-.3c1.1.13,2.37.22,4,.34l1.48-1.74a3.09,3.09,0,0,0,.72-1.15c.26-1,2-1.78,2-1.78A1.65,1.65,0,0,1,48.26,9.3Zm-14.61,4s.12,0,.12.08-.12.13-.29.13h-.22a2.51,2.51,0,0,0-.29,0s0,0,0,0,.13-.13.26-.21.13-.05.17-.05a.42.42,0,0,1,.21.05Zm.76.17,0,0c0,.08-.12.13-.25.13h-.09v-.09a1.3,1.3,0,0,1,0-.3S34.37,13.3,34.41,13.47Zm1.1,0a.16.16,0,0,1,.13,0,.27.27,0,0,0,.17,0c.13,0,.26,0,.34,0h.38a.21.21,0,0,1,.09.17c0,.09,0,.13-.17.13a1.7,1.7,0,0,0-.51.08,1,1,0,0,1-.38-.12c-.09-.09-.17-.13-.17-.22v0A.4.4,0,0,1,35.51,13.51Zm2.21.13a1.29,1.29,0,0,0,.26-.05s0,0,0,.05l0,.08c0,.09-.17.13-.38.21h0c-.13,0-.26-.08-.43-.08H37c-.12,0-.21,0-.21-.13a.14.14,0,0,1,0-.08Zm1.24.12c.21,0,.34.05.34.13l0,0c0,.09,0,.22-.17.22A.13.13,0,0,1,39,14.1a.63.63,0,0,0-.39-.21s-.08,0-.08,0,0,.05,0,.05-.17-.09-.17-.17,0-.05,0-.09A5.24,5.24,0,0,1,39,13.76Zm7.81.17a1.92,1.92,0,0,1,1-.42h.13a1,1,0,0,1,.89.81v.12c-.08.34-.08.64-.21.64h0c-.17,0-.39-.38-.39-.64v-.12c0-.05-.08-.09-.21-.09-.3,0-1,.26-1.83,1.28-1.27,1.48-2.46,2.84-2.93,3.27s-1.74,1.95-2.21,2.5-.93.94-.93,1.19a.23.23,0,0,0,.08.13.23.23,0,0,0,.17,0,9,9,0,0,0,1.87-.93,26.49,26.49,0,0,1,3.1-1.45h.09c.08,0,.08,0,.08.09s-.17.34-.68.51c-.72.3-2.59,1.53-3.35,1.78s-2.55,1.15-3.06,2.21a32.4,32.4,0,0,1-3,4.93c-.8.93-1.44,2.29-2.2,2.59a.81.81,0,0,1-.47.09.67.67,0,0,1-.72-.73,2.48,2.48,0,0,1,.38-1.14,25.43,25.43,0,0,1,3.91-4.8c1.19-1.24,1.44-2,1.44-2.43s.43-.55,1.06-.76.85-1,1.53-1.78,2.42-2.43,3.27-3.4A35.42,35.42,0,0,1,46.77,13.93ZM35.64,27.36s-2.55,3.1-2.55,3.69v.05c0,.12.09.17.17.17s.51-.34,1-1c.59-.9,1.66-2.34,1.87-2.81a11.64,11.64,0,0,0,.55-1.14c0-.05,0-.05,0-.05A2.46,2.46,0,0,0,35.64,27.36Zm11.51-7.73a2.07,2.07,0,0,0-1.48.68,4.36,4.36,0,0,0-1,1.69,3.39,3.39,0,0,0-.09.56c0,.29.09.46.34.46h.13a1.65,1.65,0,0,0,1.23-.8c.6-.72,1-1.11,1.24-1.49a1.44,1.44,0,0,0,.34-.68c0-.08-.05-.13-.05-.21a2.27,2.27,0,0,1-.12-.81,1.87,1.87,0,0,1,.12-.68.57.57,0,0,1,1.07.09,1.91,1.91,0,0,1,0,.55v.08c0,.26,0,.77.85.77.09,0,.17,0,.3,0,1.32-.22,5.82-4.89,7.77-7.4a8.26,8.26,0,0,1,1-1.23A14.45,14.45,0,0,1,60.37,10a.85.85,0,0,1,.5-.22.48.48,0,0,1,.51.43v.08c-.12.34-.29.56-1.27,1.4s-3.4,3.36-4.46,4.47a29.55,29.55,0,0,0-3.1,3.44c-1.23,1.65-4.25,5.52-5.27,7.3s-1.49,2.13-1.87,3.53a1.55,1.55,0,0,0-.13.55c0,.81.85.85.85,1.06s-.59.34-.59.34a1.7,1.7,0,0,1-.77-1.65,3.89,3.89,0,0,1,.56-2c.85-1.49,3.69-5.4,4.54-6.5.68-.89,1.45-2.08,2.17-3.06a4.66,4.66,0,0,1-2.25,1.23,1.39,1.39,0,0,1-.43.05.92.92,0,0,1-.68-.26,1.52,1.52,0,0,0-.51.72,5.8,5.8,0,0,1-2.72,2.72,2.13,2.13,0,0,1-.63.17c-.68,0-1.11-.55-1.11-1.4a4.09,4.09,0,0,1,.51-1.74c1.11-2.17,2.38-2,2.85-2.13h0c.3,0,.43.3.43.56a1.31,1.31,0,0,1,0,.25A.4.4,0,0,1,47.15,19.63Zm4.51,3.44V23c.46-1.23,2.46-2.63,2.8-3.35a.14.14,0,0,1,.13-.13c.21,0,.51.3.59.64v.08c0,.6-1.61,1.53-2,2.08-.3.38-.55.72-.72.94v.08c0,.13.17.26.42.26a.9.9,0,0,0,.34,0l0,0c.09,0,.09,0,.09.09s0,.08,0,.08a1.9,1.9,0,0,1-.85.17c-.39,0-.73-.13-.81-.55C51.66,23.24,51.66,23.15,51.66,23.07Zm3.57-5c0-.6,2-1.41,2.25-1.58a6.51,6.51,0,0,1,1.19-.46.14.14,0,0,1,.08,0c0,.13-.17.09-.55.34A16.73,16.73,0,0,0,56.41,18c-.38.3-.63.47-.8.47a.29.29,0,0,1-.3-.17A.25.25,0,0,1,55.23,18.1Zm2.46,2.21a4.49,4.49,0,0,0-1,1.69,3.27,3.27,0,0,0-.08.56c0,.29.08.46.34.46h.12a1.68,1.68,0,0,0,1.24-.8c.59-.72,1-1.11,1.23-1.49a1.44,1.44,0,0,0,.34-.68c0-.08,0-.13,0-.21a2.27,2.27,0,0,1-.12-.81,1.87,1.87,0,0,1,.12-.68.57.57,0,0,1,1.07.09v.12c0,.3-.09.56-.09.73a.29.29,0,0,0,.09.25,2.24,2.24,0,0,0,1.57.47h.17c.25,0,.42,0,.55,0,.3,0,.34.08.34.21s-.08.3-.42.3c-.13,0-.3-.05-.47-.05H61.55c-.25,0-.46,0-.55-.12a.39.39,0,0,0-.21-.09c-.21,0-.43.26-.6.72a5.82,5.82,0,0,1-2.71,2.72,2.26,2.26,0,0,1-.64.17c-.68,0-1.11-.55-1.11-1.4a4.09,4.09,0,0,1,.51-1.74c1.11-2.17,2.38-2,2.85-2.13h0c.3,0,.43.3.43.56a1.6,1.6,0,0,1,0,.25.41.41,0,0,1-.34.26A2.09,2.09,0,0,0,57.69,20.31Z"/></svg>